<?xml version="1.0" encoding="UTF-8"?>
<svg id="Layer_2" data-name="Layer 2" xmlns="http://www.w3.org/2000/svg" viewBox="0 0 131.84 32.82">
  <defs>
    <style>
      .cls-1 {
        fill: #0183ff;
      }

      .cls-2 {
        fill: #0f1418;
      }

      .cls-3 {
        fill: #ff5722;
        fill-rule: evenodd;
      }
    </style>
  </defs>
  <g id="Layer_1-2" data-name="Layer 1">
    <g>
      <g>
        <path class="cls-2" d="M5.67,0c4.77,0,7.58,2.33,7.58,7.36v4.02c0,5.03-2.81,7.36-7.58,7.36H0V0H5.67ZM2.2,16.73h3.42c3.64,0,5.44-1.47,5.44-5.33V7.33c0-3.85-1.82-5.33-5.44-5.33H2.2v14.73Z"/>
        <path class="cls-2" d="M21.75,5.3c3.53,0,5.67,2.06,5.67,5.19v8.25h-2.01v-2.2h-.38c-.65,1.26-2.11,2.57-4.92,2.57s-4.87-1.5-4.87-3.85,1.95-3.59,4.98-3.89l5.17-.48v-.51c0-1.98-1.34-3.24-3.69-3.24s-3.72,1.21-4.47,2.92l-1.8-.83c.96-2.03,3.05-3.94,6.32-3.94h0Zm-1.37,12.07c3.15,0,5.01-1.85,5.01-4.55v-.27l-4.9,.45c-1.82,.16-3.19,.72-3.19,2.2s1.26,2.16,3.08,2.16h0Z"/>
        <path class="cls-2" d="M40.09,18.74v-2.33h-.38c-.67,1.28-1.93,2.57-4.58,2.57s-5.14-1.77-5.14-5.38V5.67h2.03v7.74c0,2.54,1.39,3.75,3.67,3.75,2.57,0,4.34-1.66,4.34-4.77V5.67h2.06v13.06h-2Z"/>
        <path class="cls-2" d="M47.03,0V8.35h8.81V0h2.2V18.74h-2.2V10.34h-8.81v8.41h-2.2V0h2.2Z"/>
        <path class="cls-2" d="M66.77,5.28c3.75,0,6.32,2.65,6.32,6.5v1.1h-10.68c.16,2.73,1.98,4.41,4.61,4.41,2.14,0,3.32-1.1,4.04-2.59l1.8,.94c-.94,1.69-2.54,3.48-5.81,3.48-4.07,0-6.77-3.05-6.77-7.01s2.73-6.83,6.5-6.83h0Zm4.18,5.92c-.05-2.6-1.69-4.09-4.18-4.09s-4.12,1.53-4.36,4.09h8.54Z"/>
        <path class="cls-2" d="M77.35,7.63h.38c.48-1.31,1.5-2.01,3.37-2.01h1.64v1.98h-2.25c-1.93,0-3.05,1.1-3.05,3.26v7.87h-2.04V5.67h1.95v1.96h0Z"/>
        <path class="cls-2" d="M91.28,10.82l5.91,7.92h-2.49l-4.92-6.64-2.94,2.49v4.15h-2.03V0h2.03V11.78h.32l7.06-6.1h3.08l-6.02,5.14h0Z"/>
        <path class="cls-2" d="M103.95,5.28c3.75,0,6.32,2.65,6.32,6.5v1.1h-10.68c.16,2.73,1.98,4.41,4.61,4.41,2.14,0,3.32-1.1,4.04-2.59l1.8,.94c-.94,1.69-2.54,3.48-5.81,3.48-4.07,0-6.77-3.05-6.77-7.01s2.73-6.83,6.5-6.83h0Zm4.18,5.92c-.05-2.6-1.69-4.09-4.18-4.09s-4.12,1.53-4.36,4.09h8.54Z"/>
        <path class="cls-2" d="M114.5,7.63h.38c.48-1.31,1.5-2.01,3.37-2.01h1.64v1.98h-2.25c-1.93,0-3.05,1.1-3.05,3.26v7.87h-2.03V5.67h1.95v1.96h0Z"/>
        <path class="cls-2" d="M125.62,5.67V.96h2.06V5.67h4.15v1.8h-4.15v8.7c0,.54,.22,.77,.7,.77h2.7v1.8h-3.46c-1.21,0-2.01-.81-2.01-2.06V7.47h-3.96v-1.8h3.96Z"/>
      </g>
      <rect class="cls-1" x="1.93" y="30.52" width="129.89" height="1.25"/>
      <path class="cls-3" d="M0,29.48H70.38v3.34H0v-3.34Z"/>
    </g>
  </g>
</svg>